<svg width="32" height="31" viewBox="0 0 32 31" fill="none" xmlns="http://www.w3.org/2000/svg">
<g clip-path="url(#clip0)">
<path d="M12.4267 0C5.85981 0 0.535156 5.39492 0.535156 12.0486C0.535156 18.7022 5.85981 24.0971 12.4268 24.0971C14.9521 24.0971 17.294 23.2991 19.219 21.9397L19.2204 21.9383L28.0398 30.8741C28.2034 31.0399 28.4637 31.0442 28.6316 30.8741L31.0085 28.4658C31.1722 28.3 31.1638 28.025 31.0071 27.8662L22.1891 18.9318C23.5307 16.98 24.3184 14.6071 24.3184 12.0486C24.3184 5.39492 18.9937 0 12.4267 0ZM12.4267 21.2622C7.40426 21.2622 3.33315 17.1373 3.33315 12.0486C3.33315 6.95981 7.40431 2.83496 12.4267 2.83496C17.4492 2.83496 21.5203 6.95981 21.5203 12.0486C21.5203 17.1373 17.4492 21.2622 12.4267 21.2622Z" fill="#FD8234"/>
</g>
<defs>
<clipPath id="clip0">
<rect width="30.5962" height="31" fill="white" transform="translate(0.53125)"/>
</clipPath>
</defs>
</svg>
